<svg width="494" height="105" viewBox="0 0 494 105" fill="none" xmlns="http://www.w3.org/2000/svg">
<path d="M143.45 52.5C143.45 47.6933 144.523 43.4 146.67 39.62C148.863 35.7933 151.827 32.83 155.56 30.73C159.34 28.5833 163.563 27.51 168.23 27.51C173.69 27.51 178.473 28.91 182.58 31.71C186.687 34.51 189.557 38.3833 191.19 43.33H179.92C178.8 40.9967 177.213 39.2467 175.16 38.08C173.153 36.9133 170.82 36.33 168.16 36.33C165.313 36.33 162.77 37.0067 160.53 38.36C158.337 39.6667 156.61 41.5333 155.35 43.96C154.137 46.3867 153.53 49.2333 153.53 52.5C153.53 55.72 154.137 58.5667 155.35 61.04C156.61 63.4667 158.337 65.3567 160.53 66.71C162.77 68.0167 165.313 68.67 168.16 68.67C170.82 68.67 173.153 68.0867 175.16 66.92C177.213 65.7067 178.8 63.9333 179.92 61.6H191.19C189.557 66.5933 186.687 70.49 182.58 73.29C178.52 76.0433 173.737 77.42 168.23 77.42C163.563 77.42 159.34 76.37 155.56 74.27C151.827 72.1233 148.863 69.16 146.67 65.38C144.523 61.6 143.45 57.3067 143.45 52.5ZM216.78 77.63C213.047 77.63 209.687 76.8133 206.7 75.18C203.714 73.5 201.357 71.1433 199.63 68.11C197.95 65.0767 197.11 61.5767 197.11 57.61C197.11 53.6433 197.974 50.1433 199.7 47.11C201.474 44.0767 203.877 41.7433 206.91 40.11C209.944 38.43 213.327 37.59 217.06 37.59C220.794 37.59 224.177 38.43 227.21 40.11C230.244 41.7433 232.624 44.0767 234.35 47.11C236.124 50.1433 237.01 53.6433 237.01 57.61C237.01 61.5767 236.1 65.0767 234.28 68.11C232.507 71.1433 230.08 73.5 227 75.18C223.967 76.8133 220.56 77.63 216.78 77.63ZM216.78 69.09C218.554 69.09 220.21 68.67 221.75 67.83C223.337 66.9433 224.597 65.6367 225.53 63.91C226.464 62.1833 226.93 60.0833 226.93 57.61C226.93 53.9233 225.95 51.1 223.99 49.14C222.077 47.1333 219.72 46.13 216.92 46.13C214.12 46.13 211.764 47.1333 209.85 49.14C207.984 51.1 207.05 53.9233 207.05 57.61C207.05 61.2967 207.96 64.1433 209.78 66.15C211.647 68.11 213.98 69.09 216.78 69.09ZM241.679 57.47C241.679 53.55 242.449 50.0733 243.989 47.04C245.576 44.0067 247.722 41.6733 250.429 40.04C253.136 38.4067 256.146 37.59 259.459 37.59C261.979 37.59 264.382 38.15 266.669 39.27C268.956 40.3433 270.776 41.79 272.129 43.61V25.2H282.069V77H272.129V71.26C270.916 73.1733 269.212 74.7133 267.019 75.88C264.826 77.0467 262.282 77.63 259.389 77.63C256.122 77.63 253.136 76.79 250.429 75.11C247.722 73.43 245.576 71.0733 243.989 68.04C242.449 64.96 241.679 61.4367 241.679 57.47ZM272.199 57.61C272.199 55.23 271.732 53.2 270.799 51.52C269.866 49.7933 268.606 48.4867 267.019 47.6C265.432 46.6667 263.729 46.2 261.909 46.2C260.089 46.2 258.409 46.6433 256.869 47.53C255.329 48.4167 254.069 49.7233 253.089 51.45C252.156 53.13 251.689 55.1367 251.689 57.47C251.689 59.8033 252.156 61.8567 253.089 63.63C254.069 65.3567 255.329 66.6867 256.869 67.62C258.456 68.5533 260.136 69.02 261.909 69.02C263.729 69.02 265.432 68.5767 267.019 67.69C268.606 66.7567 269.866 65.45 270.799 63.77C271.732 62.0433 272.199 59.99 272.199 57.61ZM327.691 56.77C327.691 58.17 327.597 59.43 327.411 60.55H299.061C299.294 63.35 300.274 65.5433 302.001 67.13C303.727 68.7167 305.851 69.51 308.371 69.51C312.011 69.51 314.601 67.9467 316.141 64.82H326.711C325.591 68.5533 323.444 71.6333 320.271 74.06C317.097 76.44 313.201 77.63 308.581 77.63C304.847 77.63 301.487 76.8133 298.501 75.18C295.561 73.5 293.251 71.1433 291.571 68.11C289.937 65.0767 289.121 61.5767 289.121 57.61C289.121 53.5967 289.937 50.0733 291.571 47.04C293.204 44.0067 295.491 41.6733 298.431 40.04C301.371 38.4067 304.754 37.59 308.581 37.59C312.267 37.59 315.557 38.3833 318.451 39.97C321.391 41.5567 323.654 43.82 325.241 46.76C326.874 49.6533 327.691 52.99 327.691 56.77ZM317.541 53.97C317.494 51.45 316.584 49.4433 314.811 47.95C313.037 46.41 310.867 45.64 308.301 45.64C305.874 45.64 303.821 46.3867 302.141 47.88C300.507 49.3267 299.504 51.3567 299.131 53.97H317.541ZM344.644 44.24C345.904 42.1867 347.537 40.5767 349.544 39.41C351.597 38.2433 353.93 37.66 356.544 37.66V47.95H353.954C350.874 47.95 348.54 48.6733 346.954 50.12C345.414 51.5667 344.644 54.0867 344.644 57.68V77H334.844V38.22H344.644V44.24ZM380.224 28.14C385.358 28.14 389.861 29.1433 393.734 31.15C397.654 33.1567 400.664 36.0267 402.764 39.76C404.911 43.4467 405.984 47.74 405.984 52.64C405.984 57.54 404.911 61.8333 402.764 65.52C400.664 69.16 397.654 71.9833 393.734 73.99C389.861 75.9967 385.358 77 380.224 77H363.144V28.14H380.224ZM379.874 68.67C385.008 68.67 388.974 67.27 391.774 64.47C394.574 61.67 395.974 57.7267 395.974 52.64C395.974 47.5533 394.574 43.5867 391.774 40.74C388.974 37.8467 385.008 36.4 379.874 36.4H372.944V68.67H379.874ZM449.37 56.77C449.37 58.17 449.277 59.43 449.09 60.55H420.74C420.974 63.35 421.954 65.5433 423.68 67.13C425.407 68.7167 427.53 69.51 430.05 69.51C433.69 69.51 436.28 67.9467 437.82 64.82H448.39C447.27 68.5533 445.124 71.6333 441.95 74.06C438.777 76.44 434.88 77.63 430.26 77.63C426.527 77.63 423.167 76.8133 420.18 75.18C417.24 73.5 414.93 71.1433 413.25 68.11C411.617 65.0767 410.8 61.5767 410.8 57.61C410.8 53.5967 411.617 50.0733 413.25 47.04C414.884 44.0067 417.17 41.6733 420.11 40.04C423.05 38.4067 426.434 37.59 430.26 37.59C433.947 37.59 437.237 38.3833 440.13 39.97C443.07 41.5567 445.334 43.82 446.92 46.76C448.554 49.6533 449.37 52.99 449.37 56.77ZM439.22 53.97C439.174 51.45 438.264 49.4433 436.49 47.95C434.717 46.41 432.547 45.64 429.98 45.64C427.554 45.64 425.5 46.3867 423.82 47.88C422.187 49.3267 421.184 51.3567 420.81 53.97H439.22ZM472.693 67.97L482.493 38.22H492.923L478.573 77H466.673L452.393 38.22H462.893L472.693 67.97Z" fill="white"/>
<path d="M55 5L110 100H0L55 5Z" fill="white"/>
</svg>
